M48
; DRILL file {KiCad 6.0.1-79c1e3a40b~116~ubuntu20.04.1} date Sun 13 Feb 2022 06:37:21 PM
; FORMAT={-:-/ absolute / inch / decimal}
; #@! TF.CreationDate,2022-02-13T18:37:21+04:00
; #@! TF.GenerationSoftware,Kicad,Pcbnew,6.0.1-79c1e3a40b~116~ubuntu20.04.1
; #@! TF.FileFunction,Plated,1,2,PTH
FMAT,2
INCH
; #@! TA.AperFunction,Plated,PTH,ViaDrill
T1C0.0157
; #@! TA.AperFunction,Plated,PTH,ComponentDrill
T2C0.0315
; #@! TA.AperFunction,Plated,PTH,ComponentDrill
T3C0.0394
; #@! TA.AperFunction,Plated,PTH,ComponentDrill
T4C0.0433
; #@! TA.AperFunction,Plated,PTH,ComponentDrill
T5C0.0591
%
G90
G05
T1
X2.8Y-2.4
X2.8Y-2.5
X2.9Y-2.0
X2.9Y-2.3
X2.9Y-2.4
X2.9Y-2.5
X3.0Y-2.0
X3.1Y-2.0
X3.1Y-2.1
X3.1Y-2.3
X3.1Y-2.4
X3.2Y-2.1
X3.2Y-2.3
X3.2Y-2.4
X3.275Y-1.85
X3.5Y-2.05
X3.5Y-2.3
X3.56Y-1.99
X3.56Y-2.03
X3.575Y-1.89
X3.6Y-2.3
X3.7Y-2.3
X3.7Y-2.4
X3.72Y-1.85
X3.725Y-2.2
X3.875Y-1.975
X3.875Y-2.375
X4.025Y-1.95
X4.025Y-2.0
X4.03Y-2.31
X4.17Y-2.05
X4.45Y-1.79
X4.45Y-2.144
X4.45Y-2.3
X4.45Y-2.4
X4.458Y-2.032
X4.75Y-1.75
X4.75Y-1.85
X4.75Y-1.95
X4.75Y-2.05
X4.75Y-2.15
X4.75Y-2.45
X4.775Y-2.3
X4.85Y-1.75
X4.85Y-1.85
X4.85Y-1.95
X4.85Y-2.05
X4.85Y-2.25
X4.85Y-2.45
X5.14Y-2.52
X5.15Y-1.775
X5.15Y-1.9
X5.15Y-2.0
X5.15Y-2.1
X5.15Y-2.2
X5.15Y-2.3
X5.25Y-1.775
X5.25Y-1.9
X5.25Y-2.0
X5.25Y-2.1
X5.25Y-2.2
X5.25Y-2.3
X5.25Y-2.4
X5.35Y-1.775
T2
X2.8Y-2.0675
X2.8Y-2.1463
X2.8Y-2.225
X3.35Y-1.7996
X3.35Y-2.0996
X3.45Y-1.7996
X3.45Y-2.0996
X3.55Y-1.7996
X3.55Y-2.0996
X3.65Y-1.7996
X3.65Y-2.0996
X3.8Y-2.1996
X3.8Y-2.4996
X3.8004Y-1.7996
X3.8004Y-2.0996
X3.9Y-2.1996
X3.9Y-2.4996
X3.9004Y-1.7996
X3.9004Y-2.0996
X4.0Y-2.1996
X4.0Y-2.4996
X4.0004Y-1.7996
X4.0004Y-2.0996
X4.1Y-2.1996
X4.1Y-2.4996
X4.1004Y-1.7996
X4.1004Y-2.0996
X4.2504Y-1.8502
X4.2504Y-1.9502
X4.2504Y-2.0502
X4.2504Y-2.1502
X4.2504Y-2.2502
X4.2504Y-2.3502
X4.2504Y-2.4502
X4.5504Y-1.8502
X4.5504Y-1.9502
X4.5504Y-2.0502
X4.5504Y-2.1502
X4.5504Y-2.2502
X4.5504Y-2.3502
X4.5504Y-2.4502
X4.6504Y-1.85
X4.6504Y-1.95
X4.6504Y-2.05
X4.6504Y-2.15
X4.6504Y-2.25
X4.6504Y-2.35
X4.6504Y-2.45
X4.9504Y-1.85
X4.9504Y-1.95
X4.9504Y-2.05
X4.9504Y-2.15
X4.9504Y-2.25
X4.9504Y-2.35
X4.9504Y-2.45
X5.0504Y-1.85
X5.0504Y-1.95
X5.0504Y-2.05
X5.0504Y-2.15
X5.0504Y-2.25
X5.0504Y-2.35
X5.0504Y-2.45
X5.3504Y-1.85
X5.3504Y-1.95
X5.3504Y-2.05
X5.3504Y-2.15
X5.3504Y-2.25
X5.3504Y-2.35
X5.3504Y-2.45
T3
X2.7006Y-1.7
X2.7006Y-2.6
X2.8006Y-1.7
X2.8006Y-1.85
X2.8006Y-2.6
X2.9006Y-1.7
X2.9006Y-1.85
X2.9006Y-2.6
X3.0006Y-1.7
X3.0006Y-1.85
X3.0006Y-2.6
X3.1006Y-1.7
X3.1006Y-2.6
X3.2006Y-1.7
X3.2006Y-2.6
X3.3006Y-1.7
X3.3006Y-2.6
X3.4006Y-1.7
X3.4006Y-2.6
X3.4016Y-2.4386
X3.5Y-2.2417
X3.5006Y-1.7
X3.5006Y-2.6
X3.5984Y-2.4386
X3.6006Y-1.7
X3.6006Y-2.6
X3.7006Y-1.7
X3.7006Y-2.6
X3.8006Y-1.7
X3.8006Y-2.6
X3.9006Y-1.7
X3.9006Y-2.6
X4.0006Y-1.7
X4.0006Y-2.6
X4.1006Y-1.7
X4.1006Y-2.6
X4.2006Y-1.7
X4.2006Y-2.6
X4.3006Y-1.7
X4.3006Y-2.6
X4.4006Y-1.7
X4.4006Y-2.6
X4.5006Y-1.7
X4.5006Y-2.6
X4.6006Y-1.7
X4.6006Y-2.6
X4.7006Y-1.7
X4.7006Y-2.6
X4.8006Y-1.7
X4.8006Y-2.6
X4.9006Y-1.7
X4.9006Y-2.6
X5.0006Y-1.7
X5.0006Y-2.6
X5.1006Y-1.7
X5.1006Y-2.6
X5.2006Y-1.7
X5.2006Y-2.6
X5.3006Y-1.7
X5.3006Y-2.6
X5.4006Y-1.7
X5.4006Y-2.6
T4
X3.022Y-2.2614
X3.022Y-2.4386
X3.278Y-2.2614
X3.278Y-2.4386
T5
X2.8Y-1.9848
X2.8Y-2.3077
T0
M30
