%TF.GenerationSoftware,KiCad,Pcbnew,6.0.1-79c1e3a40b~116~ubuntu20.04.1*%
%TF.CreationDate,2022-02-13T18:37:17+04:00*%
%TF.ProjectId,clock_module,636c6f63-6b5f-46d6-9f64-756c652e6b69,rev?*%
%TF.SameCoordinates,Original*%
%TF.FileFunction,Soldermask,Bot*%
%TF.FilePolarity,Negative*%
%FSLAX46Y46*%
G04 Gerber Fmt 4.6, Leading zero omitted, Abs format (unit mm)*
G04 Created by KiCad (PCBNEW 6.0.1-79c1e3a40b~116~ubuntu20.04.1) date 2022-02-13 18:37:17*
%MOMM*%
%LPD*%
G01*
G04 APERTURE LIST*
G04 Aperture macros list*
%AMRoundRect*
0 Rectangle with rounded corners*
0 $1 Rounding radius*
0 $2 $3 $4 $5 $6 $7 $8 $9 X,Y pos of 4 corners*
0 Add a 4 corners polygon primitive as box body*
4,1,4,$2,$3,$4,$5,$6,$7,$8,$9,$2,$3,0*
0 Add four circle primitives for the rounded corners*
1,1,$1+$1,$2,$3*
1,1,$1+$1,$4,$5*
1,1,$1+$1,$6,$7*
1,1,$1+$1,$8,$9*
0 Add four rect primitives between the rounded corners*
20,1,$1+$1,$2,$3,$4,$5,0*
20,1,$1+$1,$4,$5,$6,$7,0*
20,1,$1+$1,$6,$7,$8,$9,0*
20,1,$1+$1,$8,$9,$2,$3,0*%
G04 Aperture macros list end*
%ADD10R,1.600000X1.600000*%
%ADD11O,1.600000X1.600000*%
%ADD12RoundRect,0.250000X-0.475000X0.337500X-0.475000X-0.337500X0.475000X-0.337500X0.475000X0.337500X0*%
%ADD13R,1.700000X1.700000*%
%ADD14O,1.700000X1.700000*%
%ADD15R,1.550000X1.550000*%
%ADD16C,1.550000*%
%ADD17O,2.500000X1.500000*%
%ADD18R,2.500000X1.500000*%
%ADD19O,3.500000X2.200000*%
%ADD20C,2.000000*%
%ADD21RoundRect,0.250000X-0.450000X0.350000X-0.450000X-0.350000X0.450000X-0.350000X0.450000X0.350000X0*%
%ADD22RoundRect,0.250000X0.450000X-0.350000X0.450000X0.350000X-0.450000X0.350000X-0.450000X-0.350000X0*%
%ADD23RoundRect,0.250000X0.475000X-0.337500X0.475000X0.337500X-0.475000X0.337500X-0.475000X-0.337500X0*%
G04 APERTURE END LIST*
D10*
%TO.C,U1*%
X85090000Y-53330000D03*
D11*
X87630000Y-53330000D03*
X90170000Y-53330000D03*
X92710000Y-53330000D03*
X92710000Y-45710000D03*
X90170000Y-45710000D03*
X87630000Y-45710000D03*
X85090000Y-45710000D03*
%TD*%
D12*
%TO.C,C1*%
X85080000Y-50567500D03*
X85080000Y-48492500D03*
%TD*%
D13*
%TO.C,J3*%
X71135000Y-46990000D03*
D14*
X73675000Y-46990000D03*
X76215000Y-46990000D03*
%TD*%
D10*
%TO.C,U3*%
X96530000Y-53330000D03*
D11*
X99070000Y-53330000D03*
X101610000Y-53330000D03*
X104150000Y-53330000D03*
X104150000Y-45710000D03*
X101610000Y-45710000D03*
X99070000Y-45710000D03*
X96530000Y-45710000D03*
%TD*%
D10*
%TO.C,U5*%
X128280000Y-46990000D03*
D11*
X128280000Y-49530000D03*
X128280000Y-52070000D03*
X128280000Y-54610000D03*
X128280000Y-57150000D03*
X128280000Y-59690000D03*
X128280000Y-62230000D03*
X135900000Y-62230000D03*
X135900000Y-59690000D03*
X135900000Y-57150000D03*
X135900000Y-54610000D03*
X135900000Y-52070000D03*
X135900000Y-49530000D03*
X135900000Y-46990000D03*
%TD*%
D15*
%TO.C,RV1*%
X91400000Y-61940000D03*
D16*
X88900000Y-56940000D03*
X86400000Y-61940000D03*
%TD*%
D17*
%TO.C,SW2*%
X71120000Y-52515000D03*
X71120000Y-54515000D03*
D18*
X71120000Y-56515000D03*
D19*
X71120000Y-58615000D03*
X71120000Y-50415000D03*
%TD*%
D10*
%TO.C,U6*%
X118120000Y-46990000D03*
D11*
X118120000Y-49530000D03*
X118120000Y-52070000D03*
X118120000Y-54610000D03*
X118120000Y-57150000D03*
X118120000Y-59690000D03*
X118120000Y-62230000D03*
X125740000Y-62230000D03*
X125740000Y-59690000D03*
X125740000Y-57150000D03*
X125740000Y-54610000D03*
X125740000Y-52070000D03*
X125740000Y-49530000D03*
X125740000Y-46990000D03*
%TD*%
D20*
%TO.C,SW1*%
X76760000Y-57440000D03*
X83260000Y-57440000D03*
X76760000Y-61940000D03*
X83260000Y-61940000D03*
%TD*%
D10*
%TO.C,U2*%
X96520000Y-63490000D03*
D11*
X99060000Y-63490000D03*
X101600000Y-63490000D03*
X104140000Y-63490000D03*
X104140000Y-55870000D03*
X101600000Y-55870000D03*
X99060000Y-55870000D03*
X96520000Y-55870000D03*
%TD*%
D10*
%TO.C,U4*%
X107960000Y-46995000D03*
D11*
X107960000Y-49535000D03*
X107960000Y-52075000D03*
X107960000Y-54615000D03*
X107960000Y-57155000D03*
X107960000Y-59695000D03*
X107960000Y-62235000D03*
X115580000Y-62235000D03*
X115580000Y-59695000D03*
X115580000Y-57155000D03*
X115580000Y-54615000D03*
X115580000Y-52075000D03*
X115580000Y-49535000D03*
X115580000Y-46995000D03*
%TD*%
D21*
%TO.C,R6*%
X92700000Y-48530000D03*
X92700000Y-50530000D03*
%TD*%
D12*
%TO.C,C6*%
X110490000Y-58652500D03*
X110490000Y-60727500D03*
%TD*%
%TO.C,C4*%
X81270000Y-48492500D03*
X81270000Y-50567500D03*
%TD*%
D21*
%TO.C,R4*%
X100330000Y-48530000D03*
X100330000Y-50530000D03*
%TD*%
D12*
%TO.C,C8*%
X110490000Y-48492500D03*
X110490000Y-50567500D03*
%TD*%
D21*
%TO.C,R2*%
X100330000Y-58690000D03*
X100330000Y-60690000D03*
%TD*%
D12*
%TO.C,C2*%
X96520000Y-58652500D03*
X96520000Y-60727500D03*
%TD*%
D21*
%TO.C,R5*%
X104140000Y-48530000D03*
X104140000Y-50530000D03*
%TD*%
D13*
%TO.C,J1*%
X68595000Y-66040000D03*
D14*
X71135000Y-66040000D03*
X73675000Y-66040000D03*
X76215000Y-66040000D03*
X78755000Y-66040000D03*
X81295000Y-66040000D03*
X83835000Y-66040000D03*
X86375000Y-66040000D03*
X88915000Y-66040000D03*
X91455000Y-66040000D03*
X93995000Y-66040000D03*
X96535000Y-66040000D03*
X99075000Y-66040000D03*
X101615000Y-66040000D03*
X104155000Y-66040000D03*
X106695000Y-66040000D03*
X109235000Y-66040000D03*
X111775000Y-66040000D03*
X114315000Y-66040000D03*
X116855000Y-66040000D03*
X119395000Y-66040000D03*
X121935000Y-66040000D03*
X124475000Y-66040000D03*
X127015000Y-66040000D03*
X129555000Y-66040000D03*
X132095000Y-66040000D03*
X134635000Y-66040000D03*
X137175000Y-66040000D03*
%TD*%
D13*
%TO.C,J2*%
X68595000Y-43180000D03*
D14*
X71135000Y-43180000D03*
X73675000Y-43180000D03*
X76215000Y-43180000D03*
X78755000Y-43180000D03*
X81295000Y-43180000D03*
X83835000Y-43180000D03*
X86375000Y-43180000D03*
X88915000Y-43180000D03*
X91455000Y-43180000D03*
X93995000Y-43180000D03*
X96535000Y-43180000D03*
X99075000Y-43180000D03*
X101615000Y-43180000D03*
X104155000Y-43180000D03*
X106695000Y-43180000D03*
X109235000Y-43180000D03*
X111775000Y-43180000D03*
X114315000Y-43180000D03*
X116855000Y-43180000D03*
X119395000Y-43180000D03*
X121935000Y-43180000D03*
X124475000Y-43180000D03*
X127015000Y-43180000D03*
X129555000Y-43180000D03*
X132095000Y-43180000D03*
X134635000Y-43180000D03*
X137175000Y-43180000D03*
%TD*%
D22*
%TO.C,R1*%
X88890000Y-50530000D03*
X88890000Y-48530000D03*
%TD*%
%TO.C,R3*%
X104140000Y-60690000D03*
X104140000Y-58690000D03*
%TD*%
D23*
%TO.C,C7*%
X110490000Y-55647500D03*
X110490000Y-53572500D03*
%TD*%
D12*
%TO.C,C3*%
X96520000Y-48492500D03*
X96520000Y-50567500D03*
%TD*%
M02*
