%TF.GenerationSoftware,KiCad,Pcbnew,6.0.1-79c1e3a40b~116~ubuntu20.04.1*%
%TF.CreationDate,2022-02-13T18:37:17+04:00*%
%TF.ProjectId,clock_module,636c6f63-6b5f-46d6-9f64-756c652e6b69,rev?*%
%TF.SameCoordinates,Original*%
%TF.FileFunction,Legend,Bot*%
%TF.FilePolarity,Positive*%
%FSLAX46Y46*%
G04 Gerber Fmt 4.6, Leading zero omitted, Abs format (unit mm)*
G04 Created by KiCad (PCBNEW 6.0.1-79c1e3a40b~116~ubuntu20.04.1) date 2022-02-13 18:37:17*
%MOMM*%
%LPD*%
G01*
G04 APERTURE LIST*
%ADD10C,0.150000*%
%ADD11C,0.120000*%
G04 APERTURE END LIST*
D10*
%TO.C,C1*%
X83757142Y-49363333D02*
X83804761Y-49315714D01*
X83852380Y-49172857D01*
X83852380Y-49077619D01*
X83804761Y-48934761D01*
X83709523Y-48839523D01*
X83614285Y-48791904D01*
X83423809Y-48744285D01*
X83280952Y-48744285D01*
X83090476Y-48791904D01*
X82995238Y-48839523D01*
X82900000Y-48934761D01*
X82852380Y-49077619D01*
X82852380Y-49172857D01*
X82900000Y-49315714D01*
X82947619Y-49363333D01*
X83852380Y-50315714D02*
X83852380Y-49744285D01*
X83852380Y-50030000D02*
X82852380Y-50030000D01*
X82995238Y-49934761D01*
X83090476Y-49839523D01*
X83138095Y-49744285D01*
%TO.C,R6*%
X91502380Y-49363333D02*
X91026190Y-49030000D01*
X91502380Y-48791904D02*
X90502380Y-48791904D01*
X90502380Y-49172857D01*
X90550000Y-49268095D01*
X90597619Y-49315714D01*
X90692857Y-49363333D01*
X90835714Y-49363333D01*
X90930952Y-49315714D01*
X90978571Y-49268095D01*
X91026190Y-49172857D01*
X91026190Y-48791904D01*
X90502380Y-50220476D02*
X90502380Y-50030000D01*
X90550000Y-49934761D01*
X90597619Y-49887142D01*
X90740476Y-49791904D01*
X90930952Y-49744285D01*
X91311904Y-49744285D01*
X91407142Y-49791904D01*
X91454761Y-49839523D01*
X91502380Y-49934761D01*
X91502380Y-50125238D01*
X91454761Y-50220476D01*
X91407142Y-50268095D01*
X91311904Y-50315714D01*
X91073809Y-50315714D01*
X90978571Y-50268095D01*
X90930952Y-50220476D01*
X90883333Y-50125238D01*
X90883333Y-49934761D01*
X90930952Y-49839523D01*
X90978571Y-49791904D01*
X91073809Y-49744285D01*
%TO.C,C6*%
X112625142Y-59523333D02*
X112672761Y-59475714D01*
X112720380Y-59332857D01*
X112720380Y-59237619D01*
X112672761Y-59094761D01*
X112577523Y-58999523D01*
X112482285Y-58951904D01*
X112291809Y-58904285D01*
X112148952Y-58904285D01*
X111958476Y-58951904D01*
X111863238Y-58999523D01*
X111768000Y-59094761D01*
X111720380Y-59237619D01*
X111720380Y-59332857D01*
X111768000Y-59475714D01*
X111815619Y-59523333D01*
X111720380Y-60380476D02*
X111720380Y-60190000D01*
X111768000Y-60094761D01*
X111815619Y-60047142D01*
X111958476Y-59951904D01*
X112148952Y-59904285D01*
X112529904Y-59904285D01*
X112625142Y-59951904D01*
X112672761Y-59999523D01*
X112720380Y-60094761D01*
X112720380Y-60285238D01*
X112672761Y-60380476D01*
X112625142Y-60428095D01*
X112529904Y-60475714D01*
X112291809Y-60475714D01*
X112196571Y-60428095D01*
X112148952Y-60380476D01*
X112101333Y-60285238D01*
X112101333Y-60094761D01*
X112148952Y-59999523D01*
X112196571Y-59951904D01*
X112291809Y-59904285D01*
%TO.C,C4*%
X79947142Y-49363333D02*
X79994761Y-49315714D01*
X80042380Y-49172857D01*
X80042380Y-49077619D01*
X79994761Y-48934761D01*
X79899523Y-48839523D01*
X79804285Y-48791904D01*
X79613809Y-48744285D01*
X79470952Y-48744285D01*
X79280476Y-48791904D01*
X79185238Y-48839523D01*
X79090000Y-48934761D01*
X79042380Y-49077619D01*
X79042380Y-49172857D01*
X79090000Y-49315714D01*
X79137619Y-49363333D01*
X79375714Y-50220476D02*
X80042380Y-50220476D01*
X78994761Y-49982380D02*
X79709047Y-49744285D01*
X79709047Y-50363333D01*
%TO.C,R4*%
X99132380Y-49363333D02*
X98656190Y-49030000D01*
X99132380Y-48791904D02*
X98132380Y-48791904D01*
X98132380Y-49172857D01*
X98180000Y-49268095D01*
X98227619Y-49315714D01*
X98322857Y-49363333D01*
X98465714Y-49363333D01*
X98560952Y-49315714D01*
X98608571Y-49268095D01*
X98656190Y-49172857D01*
X98656190Y-48791904D01*
X98465714Y-50220476D02*
X99132380Y-50220476D01*
X98084761Y-49982380D02*
X98799047Y-49744285D01*
X98799047Y-50363333D01*
%TO.C,C8*%
X112625142Y-49363333D02*
X112672761Y-49315714D01*
X112720380Y-49172857D01*
X112720380Y-49077619D01*
X112672761Y-48934761D01*
X112577523Y-48839523D01*
X112482285Y-48791904D01*
X112291809Y-48744285D01*
X112148952Y-48744285D01*
X111958476Y-48791904D01*
X111863238Y-48839523D01*
X111768000Y-48934761D01*
X111720380Y-49077619D01*
X111720380Y-49172857D01*
X111768000Y-49315714D01*
X111815619Y-49363333D01*
X112148952Y-49934761D02*
X112101333Y-49839523D01*
X112053714Y-49791904D01*
X111958476Y-49744285D01*
X111910857Y-49744285D01*
X111815619Y-49791904D01*
X111768000Y-49839523D01*
X111720380Y-49934761D01*
X111720380Y-50125238D01*
X111768000Y-50220476D01*
X111815619Y-50268095D01*
X111910857Y-50315714D01*
X111958476Y-50315714D01*
X112053714Y-50268095D01*
X112101333Y-50220476D01*
X112148952Y-50125238D01*
X112148952Y-49934761D01*
X112196571Y-49839523D01*
X112244190Y-49791904D01*
X112339428Y-49744285D01*
X112529904Y-49744285D01*
X112625142Y-49791904D01*
X112672761Y-49839523D01*
X112720380Y-49934761D01*
X112720380Y-50125238D01*
X112672761Y-50220476D01*
X112625142Y-50268095D01*
X112529904Y-50315714D01*
X112339428Y-50315714D01*
X112244190Y-50268095D01*
X112196571Y-50220476D01*
X112148952Y-50125238D01*
%TO.C,R2*%
X99132380Y-59523333D02*
X98656190Y-59190000D01*
X99132380Y-58951904D02*
X98132380Y-58951904D01*
X98132380Y-59332857D01*
X98180000Y-59428095D01*
X98227619Y-59475714D01*
X98322857Y-59523333D01*
X98465714Y-59523333D01*
X98560952Y-59475714D01*
X98608571Y-59428095D01*
X98656190Y-59332857D01*
X98656190Y-58951904D01*
X98227619Y-59904285D02*
X98180000Y-59951904D01*
X98132380Y-60047142D01*
X98132380Y-60285238D01*
X98180000Y-60380476D01*
X98227619Y-60428095D01*
X98322857Y-60475714D01*
X98418095Y-60475714D01*
X98560952Y-60428095D01*
X99132380Y-59856666D01*
X99132380Y-60475714D01*
%TO.C,C2*%
X95197142Y-59523333D02*
X95244761Y-59475714D01*
X95292380Y-59332857D01*
X95292380Y-59237619D01*
X95244761Y-59094761D01*
X95149523Y-58999523D01*
X95054285Y-58951904D01*
X94863809Y-58904285D01*
X94720952Y-58904285D01*
X94530476Y-58951904D01*
X94435238Y-58999523D01*
X94340000Y-59094761D01*
X94292380Y-59237619D01*
X94292380Y-59332857D01*
X94340000Y-59475714D01*
X94387619Y-59523333D01*
X94387619Y-59904285D02*
X94340000Y-59951904D01*
X94292380Y-60047142D01*
X94292380Y-60285238D01*
X94340000Y-60380476D01*
X94387619Y-60428095D01*
X94482857Y-60475714D01*
X94578095Y-60475714D01*
X94720952Y-60428095D01*
X95292380Y-59856666D01*
X95292380Y-60475714D01*
%TO.C,R5*%
X102942380Y-49363333D02*
X102466190Y-49030000D01*
X102942380Y-48791904D02*
X101942380Y-48791904D01*
X101942380Y-49172857D01*
X101990000Y-49268095D01*
X102037619Y-49315714D01*
X102132857Y-49363333D01*
X102275714Y-49363333D01*
X102370952Y-49315714D01*
X102418571Y-49268095D01*
X102466190Y-49172857D01*
X102466190Y-48791904D01*
X101942380Y-50268095D02*
X101942380Y-49791904D01*
X102418571Y-49744285D01*
X102370952Y-49791904D01*
X102323333Y-49887142D01*
X102323333Y-50125238D01*
X102370952Y-50220476D01*
X102418571Y-50268095D01*
X102513809Y-50315714D01*
X102751904Y-50315714D01*
X102847142Y-50268095D01*
X102894761Y-50220476D01*
X102942380Y-50125238D01*
X102942380Y-49887142D01*
X102894761Y-49791904D01*
X102847142Y-49744285D01*
%TO.C,J1*%
X68032380Y-63166666D02*
X68746666Y-63166666D01*
X68889523Y-63119047D01*
X68984761Y-63023809D01*
X69032380Y-62880952D01*
X69032380Y-62785714D01*
X69032380Y-64166666D02*
X69032380Y-63595238D01*
X69032380Y-63880952D02*
X68032380Y-63880952D01*
X68175238Y-63785714D01*
X68270476Y-63690476D01*
X68318095Y-63595238D01*
%TO.C,J2*%
X68032380Y-45386666D02*
X68746666Y-45386666D01*
X68889523Y-45339047D01*
X68984761Y-45243809D01*
X69032380Y-45100952D01*
X69032380Y-45005714D01*
X68127619Y-45815238D02*
X68080000Y-45862857D01*
X68032380Y-45958095D01*
X68032380Y-46196190D01*
X68080000Y-46291428D01*
X68127619Y-46339047D01*
X68222857Y-46386666D01*
X68318095Y-46386666D01*
X68460952Y-46339047D01*
X69032380Y-45767619D01*
X69032380Y-46386666D01*
%TO.C,R1*%
X87691380Y-49363333D02*
X87215190Y-49030000D01*
X87691380Y-48791904D02*
X86691380Y-48791904D01*
X86691380Y-49172857D01*
X86739000Y-49268095D01*
X86786619Y-49315714D01*
X86881857Y-49363333D01*
X87024714Y-49363333D01*
X87119952Y-49315714D01*
X87167571Y-49268095D01*
X87215190Y-49172857D01*
X87215190Y-48791904D01*
X87691380Y-50315714D02*
X87691380Y-49744285D01*
X87691380Y-50030000D02*
X86691380Y-50030000D01*
X86834238Y-49934761D01*
X86929476Y-49839523D01*
X86977095Y-49744285D01*
%TO.C,R3*%
X102941380Y-59523333D02*
X102465190Y-59190000D01*
X102941380Y-58951904D02*
X101941380Y-58951904D01*
X101941380Y-59332857D01*
X101989000Y-59428095D01*
X102036619Y-59475714D01*
X102131857Y-59523333D01*
X102274714Y-59523333D01*
X102369952Y-59475714D01*
X102417571Y-59428095D01*
X102465190Y-59332857D01*
X102465190Y-58951904D01*
X101941380Y-59856666D02*
X101941380Y-60475714D01*
X102322333Y-60142380D01*
X102322333Y-60285238D01*
X102369952Y-60380476D01*
X102417571Y-60428095D01*
X102512809Y-60475714D01*
X102750904Y-60475714D01*
X102846142Y-60428095D01*
X102893761Y-60380476D01*
X102941380Y-60285238D01*
X102941380Y-59999523D01*
X102893761Y-59904285D01*
X102846142Y-59856666D01*
%TO.C,C7*%
X112625142Y-54443333D02*
X112672761Y-54395714D01*
X112720380Y-54252857D01*
X112720380Y-54157619D01*
X112672761Y-54014761D01*
X112577523Y-53919523D01*
X112482285Y-53871904D01*
X112291809Y-53824285D01*
X112148952Y-53824285D01*
X111958476Y-53871904D01*
X111863238Y-53919523D01*
X111768000Y-54014761D01*
X111720380Y-54157619D01*
X111720380Y-54252857D01*
X111768000Y-54395714D01*
X111815619Y-54443333D01*
X111720380Y-54776666D02*
X111720380Y-55443333D01*
X112720380Y-55014761D01*
%TO.C,C3*%
X95197142Y-49363333D02*
X95244761Y-49315714D01*
X95292380Y-49172857D01*
X95292380Y-49077619D01*
X95244761Y-48934761D01*
X95149523Y-48839523D01*
X95054285Y-48791904D01*
X94863809Y-48744285D01*
X94720952Y-48744285D01*
X94530476Y-48791904D01*
X94435238Y-48839523D01*
X94340000Y-48934761D01*
X94292380Y-49077619D01*
X94292380Y-49172857D01*
X94340000Y-49315714D01*
X94387619Y-49363333D01*
X94292380Y-49696666D02*
X94292380Y-50315714D01*
X94673333Y-49982380D01*
X94673333Y-50125238D01*
X94720952Y-50220476D01*
X94768571Y-50268095D01*
X94863809Y-50315714D01*
X95101904Y-50315714D01*
X95197142Y-50268095D01*
X95244761Y-50220476D01*
X95292380Y-50125238D01*
X95292380Y-49839523D01*
X95244761Y-49744285D01*
X95197142Y-49696666D01*
D11*
%TO.C,C1*%
X84345000Y-49268748D02*
X84345000Y-49791252D01*
X85815000Y-49268748D02*
X85815000Y-49791252D01*
%TO.C,R6*%
X93435000Y-49302936D02*
X93435000Y-49757064D01*
X91965000Y-49302936D02*
X91965000Y-49757064D01*
%TO.C,C6*%
X111225000Y-59428748D02*
X111225000Y-59951252D01*
X109755000Y-59428748D02*
X109755000Y-59951252D01*
%TO.C,C4*%
X80535000Y-49268748D02*
X80535000Y-49791252D01*
X82005000Y-49268748D02*
X82005000Y-49791252D01*
%TO.C,R4*%
X99595000Y-49302936D02*
X99595000Y-49757064D01*
X101065000Y-49302936D02*
X101065000Y-49757064D01*
%TO.C,C8*%
X111225000Y-49268748D02*
X111225000Y-49791252D01*
X109755000Y-49268748D02*
X109755000Y-49791252D01*
%TO.C,R2*%
X99595000Y-59462936D02*
X99595000Y-59917064D01*
X101065000Y-59462936D02*
X101065000Y-59917064D01*
%TO.C,C2*%
X97255000Y-59428748D02*
X97255000Y-59951252D01*
X95785000Y-59428748D02*
X95785000Y-59951252D01*
%TO.C,R5*%
X104875000Y-49302936D02*
X104875000Y-49757064D01*
X103405000Y-49302936D02*
X103405000Y-49757064D01*
%TO.C,J1*%
X69865000Y-67370000D02*
X138505000Y-67370000D01*
X138505000Y-64710000D02*
X138505000Y-67370000D01*
X69865000Y-64710000D02*
X69865000Y-67370000D01*
X67265000Y-64710000D02*
X67265000Y-66040000D01*
X69865000Y-64710000D02*
X138505000Y-64710000D01*
X68595000Y-64710000D02*
X67265000Y-64710000D01*
%TO.C,J2*%
X67265000Y-41850000D02*
X67265000Y-43180000D01*
X138505000Y-41850000D02*
X138505000Y-44510000D01*
X69865000Y-41850000D02*
X69865000Y-44510000D01*
X69865000Y-41850000D02*
X138505000Y-41850000D01*
X68595000Y-41850000D02*
X67265000Y-41850000D01*
X69865000Y-44510000D02*
X138505000Y-44510000D01*
%TO.C,R1*%
X89625000Y-49757064D02*
X89625000Y-49302936D01*
X88155000Y-49757064D02*
X88155000Y-49302936D01*
%TO.C,R3*%
X104875000Y-59917064D02*
X104875000Y-59462936D01*
X103405000Y-59917064D02*
X103405000Y-59462936D01*
%TO.C,C7*%
X111225000Y-54871252D02*
X111225000Y-54348748D01*
X109755000Y-54871252D02*
X109755000Y-54348748D01*
%TO.C,C3*%
X95785000Y-49268748D02*
X95785000Y-49791252D01*
X97255000Y-49268748D02*
X97255000Y-49791252D01*
%TD*%
M02*
