%TF.GenerationSoftware,KiCad,Pcbnew,6.0.1-79c1e3a40b~116~ubuntu20.04.1*%
%TF.CreationDate,2022-02-13T18:37:17+04:00*%
%TF.ProjectId,clock_module,636c6f63-6b5f-46d6-9f64-756c652e6b69,rev?*%
%TF.SameCoordinates,Original*%
%TF.FileFunction,Legend,Top*%
%TF.FilePolarity,Positive*%
%FSLAX46Y46*%
G04 Gerber Fmt 4.6, Leading zero omitted, Abs format (unit mm)*
G04 Created by KiCad (PCBNEW 6.0.1-79c1e3a40b~116~ubuntu20.04.1) date 2022-02-13 18:37:17*
%MOMM*%
%LPD*%
G01*
G04 APERTURE LIST*
%ADD10C,0.150000*%
%ADD11C,0.125000*%
%ADD12C,0.100000*%
%ADD13C,0.175000*%
%ADD14C,0.120000*%
G04 APERTURE END LIST*
D10*
X68371980Y-53308929D02*
X67371980Y-53183929D01*
X68086266Y-52939882D01*
X67371980Y-52517263D01*
X68371980Y-52642263D01*
X68086266Y-52177977D02*
X68086266Y-51701786D01*
X68371980Y-52308929D02*
X67371980Y-51850596D01*
X68371980Y-51642263D01*
X68371980Y-51308929D02*
X67371980Y-51183929D01*
X68371980Y-50737501D01*
X67371980Y-50612501D01*
X67371980Y-50136310D02*
X68181504Y-50237501D01*
X68276742Y-50201786D01*
X68324361Y-50160120D01*
X68371980Y-50070834D01*
X68371980Y-49880358D01*
X68324361Y-49779167D01*
X68276742Y-49725596D01*
X68181504Y-49666072D01*
X67371980Y-49564882D01*
X68086266Y-49225596D02*
X68086266Y-48749405D01*
X68371980Y-49356548D02*
X67371980Y-48898215D01*
X68371980Y-48689882D01*
X68371980Y-47880358D02*
X68371980Y-48356548D01*
X67371980Y-48231548D01*
X68111666Y-60780625D02*
X68111666Y-60304434D01*
X68397380Y-60911577D02*
X67397380Y-60453244D01*
X68397380Y-60244910D01*
X67397380Y-59786577D02*
X68206904Y-59887767D01*
X68302142Y-59852053D01*
X68349761Y-59810386D01*
X68397380Y-59721101D01*
X68397380Y-59530625D01*
X68349761Y-59429434D01*
X68302142Y-59375863D01*
X68206904Y-59316339D01*
X67397380Y-59215148D01*
X67397380Y-58881815D02*
X67397380Y-58310386D01*
X68397380Y-58721101D02*
X67397380Y-58596101D01*
X67397380Y-57786577D02*
X67397380Y-57596101D01*
X67445000Y-57506815D01*
X67540238Y-57423482D01*
X67730714Y-57399672D01*
X68064047Y-57441339D01*
X68254523Y-57512767D01*
X68349761Y-57619910D01*
X68397380Y-57721101D01*
X68397380Y-57911577D01*
X68349761Y-58000863D01*
X68254523Y-58084196D01*
X68064047Y-58108005D01*
X67730714Y-58066339D01*
X67540238Y-57994910D01*
X67445000Y-57887767D01*
X67397380Y-57786577D01*
D11*
X131782380Y-67437771D02*
X131758571Y-67461580D01*
X131687142Y-67485390D01*
X131639523Y-67485390D01*
X131568095Y-67461580D01*
X131520476Y-67413961D01*
X131496666Y-67366342D01*
X131472857Y-67271104D01*
X131472857Y-67199676D01*
X131496666Y-67104438D01*
X131520476Y-67056819D01*
X131568095Y-67009200D01*
X131639523Y-66985390D01*
X131687142Y-66985390D01*
X131758571Y-67009200D01*
X131782380Y-67033009D01*
X132234761Y-67485390D02*
X131996666Y-67485390D01*
X131996666Y-66985390D01*
X132401428Y-67485390D02*
X132401428Y-66985390D01*
X132687142Y-67485390D02*
X132472857Y-67199676D01*
X132687142Y-66985390D02*
X132401428Y-67271104D01*
D12*
X136457619Y-66978000D02*
X136957619Y-66978000D01*
X136862380Y-67452857D02*
X136838571Y-67471904D01*
X136767142Y-67490952D01*
X136719523Y-67490952D01*
X136648095Y-67471904D01*
X136600476Y-67433809D01*
X136576666Y-67395714D01*
X136552857Y-67319523D01*
X136552857Y-67262380D01*
X136576666Y-67186190D01*
X136600476Y-67148095D01*
X136648095Y-67110000D01*
X136719523Y-67090952D01*
X136767142Y-67090952D01*
X136838571Y-67110000D01*
X136862380Y-67129047D01*
X136957619Y-66978000D02*
X137362380Y-66978000D01*
X137314761Y-67490952D02*
X137076666Y-67490952D01*
X137076666Y-67090952D01*
X137362380Y-66978000D02*
X137862380Y-66978000D01*
X137481428Y-67490952D02*
X137481428Y-67090952D01*
X137767142Y-67490952D02*
X137552857Y-67262380D01*
X137767142Y-67090952D02*
X137481428Y-67319523D01*
D11*
X129242380Y-67437771D02*
X129218571Y-67461580D01*
X129147142Y-67485390D01*
X129099523Y-67485390D01*
X129028095Y-67461580D01*
X128980476Y-67413961D01*
X128956666Y-67366342D01*
X128932857Y-67271104D01*
X128932857Y-67199676D01*
X128956666Y-67104438D01*
X128980476Y-67056819D01*
X129028095Y-67009200D01*
X129099523Y-66985390D01*
X129147142Y-66985390D01*
X129218571Y-67009200D01*
X129242380Y-67033009D01*
X129694761Y-67485390D02*
X129456666Y-67485390D01*
X129456666Y-66985390D01*
X129861428Y-67485390D02*
X129861428Y-66985390D01*
X130147142Y-67485390D02*
X129932857Y-67199676D01*
X130147142Y-66985390D02*
X129861428Y-67271104D01*
D12*
X133917619Y-66978000D02*
X134417619Y-66978000D01*
X134322380Y-67452857D02*
X134298571Y-67471904D01*
X134227142Y-67490952D01*
X134179523Y-67490952D01*
X134108095Y-67471904D01*
X134060476Y-67433809D01*
X134036666Y-67395714D01*
X134012857Y-67319523D01*
X134012857Y-67262380D01*
X134036666Y-67186190D01*
X134060476Y-67148095D01*
X134108095Y-67110000D01*
X134179523Y-67090952D01*
X134227142Y-67090952D01*
X134298571Y-67110000D01*
X134322380Y-67129047D01*
X134417619Y-66978000D02*
X134822380Y-66978000D01*
X134774761Y-67490952D02*
X134536666Y-67490952D01*
X134536666Y-67090952D01*
X134822380Y-66978000D02*
X135322380Y-66978000D01*
X134941428Y-67490952D02*
X134941428Y-67090952D01*
X135227142Y-67490952D02*
X135012857Y-67262380D01*
X135227142Y-67090952D02*
X134941428Y-67319523D01*
X136457619Y-41679600D02*
X136957619Y-41679600D01*
X136862380Y-42154457D02*
X136838571Y-42173504D01*
X136767142Y-42192552D01*
X136719523Y-42192552D01*
X136648095Y-42173504D01*
X136600476Y-42135409D01*
X136576666Y-42097314D01*
X136552857Y-42021123D01*
X136552857Y-41963980D01*
X136576666Y-41887790D01*
X136600476Y-41849695D01*
X136648095Y-41811600D01*
X136719523Y-41792552D01*
X136767142Y-41792552D01*
X136838571Y-41811600D01*
X136862380Y-41830647D01*
X136957619Y-41679600D02*
X137362380Y-41679600D01*
X137314761Y-42192552D02*
X137076666Y-42192552D01*
X137076666Y-41792552D01*
X137362380Y-41679600D02*
X137862380Y-41679600D01*
X137481428Y-42192552D02*
X137481428Y-41792552D01*
X137767142Y-42192552D02*
X137552857Y-41963980D01*
X137767142Y-41792552D02*
X137481428Y-42021123D01*
X133917619Y-41679600D02*
X134417619Y-41679600D01*
X134322380Y-42154457D02*
X134298571Y-42173504D01*
X134227142Y-42192552D01*
X134179523Y-42192552D01*
X134108095Y-42173504D01*
X134060476Y-42135409D01*
X134036666Y-42097314D01*
X134012857Y-42021123D01*
X134012857Y-41963980D01*
X134036666Y-41887790D01*
X134060476Y-41849695D01*
X134108095Y-41811600D01*
X134179523Y-41792552D01*
X134227142Y-41792552D01*
X134298571Y-41811600D01*
X134322380Y-41830647D01*
X134417619Y-41679600D02*
X134822380Y-41679600D01*
X134774761Y-42192552D02*
X134536666Y-42192552D01*
X134536666Y-41792552D01*
X134822380Y-41679600D02*
X135322380Y-41679600D01*
X134941428Y-42192552D02*
X134941428Y-41792552D01*
X135227142Y-42192552D02*
X135012857Y-41963980D01*
X135227142Y-41792552D02*
X134941428Y-42021123D01*
D11*
X131782380Y-42139371D02*
X131758571Y-42163180D01*
X131687142Y-42186990D01*
X131639523Y-42186990D01*
X131568095Y-42163180D01*
X131520476Y-42115561D01*
X131496666Y-42067942D01*
X131472857Y-41972704D01*
X131472857Y-41901276D01*
X131496666Y-41806038D01*
X131520476Y-41758419D01*
X131568095Y-41710800D01*
X131639523Y-41686990D01*
X131687142Y-41686990D01*
X131758571Y-41710800D01*
X131782380Y-41734609D01*
X132234761Y-42186990D02*
X131996666Y-42186990D01*
X131996666Y-41686990D01*
X132401428Y-42186990D02*
X132401428Y-41686990D01*
X132687142Y-42186990D02*
X132472857Y-41901276D01*
X132687142Y-41686990D02*
X132401428Y-41972704D01*
X129242380Y-42139371D02*
X129218571Y-42163180D01*
X129147142Y-42186990D01*
X129099523Y-42186990D01*
X129028095Y-42163180D01*
X128980476Y-42115561D01*
X128956666Y-42067942D01*
X128932857Y-41972704D01*
X128932857Y-41901276D01*
X128956666Y-41806038D01*
X128980476Y-41758419D01*
X129028095Y-41710800D01*
X129099523Y-41686990D01*
X129147142Y-41686990D01*
X129218571Y-41710800D01*
X129242380Y-41734609D01*
X129694761Y-42186990D02*
X129456666Y-42186990D01*
X129456666Y-41686990D01*
X129861428Y-42186990D02*
X129861428Y-41686990D01*
X130147142Y-42186990D02*
X129932857Y-41901276D01*
X130147142Y-41686990D02*
X129861428Y-41972704D01*
X69798571Y-42136190D02*
X69798571Y-41636190D01*
X69798571Y-41874285D02*
X70084285Y-41874285D01*
X70084285Y-42136190D02*
X70084285Y-41636190D01*
X70298571Y-41993333D02*
X70536666Y-41993333D01*
X70250952Y-42136190D02*
X70417619Y-41636190D01*
X70584285Y-42136190D01*
X70989047Y-42136190D02*
X70750952Y-42136190D01*
X70750952Y-41636190D01*
X71084285Y-41636190D02*
X71370000Y-41636190D01*
X71227142Y-42136190D02*
X71227142Y-41636190D01*
X71417619Y-42183809D02*
X71798571Y-42183809D01*
X71917619Y-42136190D02*
X71917619Y-41636190D01*
X72155714Y-42136190D02*
X72155714Y-41636190D01*
X72441428Y-42136190D01*
X72441428Y-41636190D01*
D10*
X121691428Y-41952857D02*
X122148571Y-41952857D01*
X126771428Y-41952857D02*
X127228571Y-41952857D01*
X81051428Y-41952857D02*
X81508571Y-41952857D01*
X116611428Y-41952857D02*
X117068571Y-41952857D01*
X96291428Y-41952857D02*
X96748571Y-41952857D01*
X75971428Y-41952857D02*
X76428571Y-41952857D01*
X106451428Y-41952857D02*
X106908571Y-41952857D01*
X91211428Y-41952857D02*
X91668571Y-41952857D01*
X111531428Y-41952857D02*
X111988571Y-41952857D01*
X86131428Y-41952857D02*
X86588571Y-41952857D01*
X101371428Y-41952857D02*
X101828571Y-41952857D01*
X111536428Y-67292857D02*
X111993571Y-67292857D01*
X116616428Y-67292857D02*
X117073571Y-67292857D01*
X126776428Y-67292857D02*
X127233571Y-67292857D01*
X121696428Y-67292857D02*
X122153571Y-67292857D01*
X91216428Y-67292857D02*
X91673571Y-67292857D01*
X101376428Y-67292857D02*
X101833571Y-67292857D01*
X96296428Y-67292857D02*
X96753571Y-67292857D01*
X106456428Y-67292857D02*
X106913571Y-67292857D01*
X81056428Y-67292857D02*
X81513571Y-67292857D01*
X86136428Y-67292857D02*
X86593571Y-67292857D01*
X75976428Y-67292857D02*
X76433571Y-67292857D01*
X70896428Y-67292857D02*
X71353571Y-67292857D01*
X124231428Y-67276657D02*
X124688571Y-67276657D01*
X124460000Y-67505228D02*
X124460000Y-67048085D01*
X119151428Y-67276657D02*
X119608571Y-67276657D01*
X119380000Y-67505228D02*
X119380000Y-67048085D01*
X114071428Y-67276657D02*
X114528571Y-67276657D01*
X114300000Y-67505228D02*
X114300000Y-67048085D01*
X98831428Y-67276657D02*
X99288571Y-67276657D01*
X99060000Y-67505228D02*
X99060000Y-67048085D01*
X93751428Y-67276657D02*
X94208571Y-67276657D01*
X93980000Y-67505228D02*
X93980000Y-67048085D01*
X108991428Y-67276657D02*
X109448571Y-67276657D01*
X109220000Y-67505228D02*
X109220000Y-67048085D01*
X103911428Y-67276657D02*
X104368571Y-67276657D01*
X104140000Y-67505228D02*
X104140000Y-67048085D01*
X88671428Y-67276657D02*
X89128571Y-67276657D01*
X88900000Y-67505228D02*
X88900000Y-67048085D01*
X83591428Y-67276657D02*
X84048571Y-67276657D01*
X83820000Y-67505228D02*
X83820000Y-67048085D01*
X78511428Y-67276657D02*
X78968571Y-67276657D01*
X78740000Y-67505228D02*
X78740000Y-67048085D01*
X73431428Y-67276657D02*
X73888571Y-67276657D01*
X73660000Y-67505228D02*
X73660000Y-67048085D01*
X68351428Y-67276657D02*
X68808571Y-67276657D01*
X68580000Y-67505228D02*
X68580000Y-67048085D01*
X124231428Y-41952857D02*
X124688571Y-41952857D01*
X124460000Y-42181428D02*
X124460000Y-41724285D01*
X119151428Y-41952857D02*
X119608571Y-41952857D01*
X119380000Y-42181428D02*
X119380000Y-41724285D01*
X114071428Y-41952857D02*
X114528571Y-41952857D01*
X114300000Y-42181428D02*
X114300000Y-41724285D01*
X108991428Y-41952857D02*
X109448571Y-41952857D01*
X109220000Y-42181428D02*
X109220000Y-41724285D01*
X103911428Y-41952857D02*
X104368571Y-41952857D01*
X104140000Y-42181428D02*
X104140000Y-41724285D01*
X98831428Y-41952857D02*
X99288571Y-41952857D01*
X99060000Y-42181428D02*
X99060000Y-41724285D01*
X93751428Y-41952857D02*
X94208571Y-41952857D01*
X93980000Y-42181428D02*
X93980000Y-41724285D01*
X88671428Y-41952857D02*
X89128571Y-41952857D01*
X88900000Y-42181428D02*
X88900000Y-41724285D01*
X83591428Y-41952857D02*
X84048571Y-41952857D01*
X83820000Y-42181428D02*
X83820000Y-41724285D01*
X78511428Y-41952857D02*
X78968571Y-41952857D01*
X78740000Y-42181428D02*
X78740000Y-41724285D01*
X73431428Y-41952857D02*
X73888571Y-41952857D01*
X73660000Y-42181428D02*
X73660000Y-41724285D01*
X68351428Y-41952857D02*
X68808571Y-41952857D01*
X68580000Y-42181428D02*
X68580000Y-41724285D01*
X70010794Y-44384980D02*
X69909603Y-45194504D01*
X69931032Y-45289742D01*
X69958413Y-45337361D01*
X70019127Y-45384980D01*
X70152460Y-45384980D01*
X70225079Y-45337361D01*
X70264365Y-45289742D01*
X70309603Y-45194504D01*
X70410794Y-44384980D01*
X70591746Y-45337361D02*
X70685794Y-45384980D01*
X70852460Y-45384980D01*
X70925079Y-45337361D01*
X70964365Y-45289742D01*
X71009603Y-45194504D01*
X71021508Y-45099266D01*
X71000079Y-45004028D01*
X70972698Y-44956409D01*
X70911984Y-44908790D01*
X70784603Y-44861171D01*
X70723889Y-44813552D01*
X70696508Y-44765933D01*
X70675079Y-44670695D01*
X70686984Y-44575457D01*
X70732222Y-44480219D01*
X70771508Y-44432600D01*
X70844127Y-44384980D01*
X71010794Y-44384980D01*
X71104841Y-44432600D01*
X71351270Y-44861171D02*
X71584603Y-44861171D01*
X71619127Y-45384980D02*
X71285794Y-45384980D01*
X71410794Y-44384980D01*
X71744127Y-44384980D01*
X72452460Y-45384980D02*
X72577460Y-44384980D01*
X72517936Y-44861171D02*
X72917936Y-44861171D01*
X72852460Y-45384980D02*
X72977460Y-44384980D01*
X73188175Y-45099266D02*
X73521508Y-45099266D01*
X73085794Y-45384980D02*
X73444127Y-44384980D01*
X73552460Y-45384980D01*
X74119127Y-45384980D02*
X73785794Y-45384980D01*
X73910794Y-44384980D01*
X74377460Y-44384980D02*
X74777460Y-44384980D01*
X74452460Y-45384980D02*
X74577460Y-44384980D01*
X73191727Y-49601380D02*
X73316727Y-48601380D01*
X73591727Y-49601380D01*
X73716727Y-48601380D01*
X74183394Y-48601380D02*
X74316727Y-48601380D01*
X74377441Y-48649000D01*
X74432203Y-48744238D01*
X74441727Y-48934714D01*
X74400060Y-49268047D01*
X74342917Y-49458523D01*
X74264346Y-49553761D01*
X74191727Y-49601380D01*
X74058394Y-49601380D01*
X73997679Y-49553761D01*
X73942917Y-49458523D01*
X73933394Y-49268047D01*
X73975060Y-48934714D01*
X74032203Y-48744238D01*
X74110775Y-48649000D01*
X74183394Y-48601380D01*
X75191727Y-49601380D02*
X75316727Y-48601380D01*
X75257203Y-49077571D02*
X75657203Y-49077571D01*
X75591727Y-49601380D02*
X75716727Y-48601380D01*
X75927441Y-49315666D02*
X76260775Y-49315666D01*
X75825060Y-49601380D02*
X76183394Y-48601380D01*
X76291727Y-49601380D01*
X76858394Y-49601380D02*
X76525060Y-49601380D01*
X76650060Y-48601380D01*
X77116727Y-48601380D02*
X77516727Y-48601380D01*
X77191727Y-49601380D02*
X77316727Y-48601380D01*
X77021994Y-55627380D02*
X77146994Y-54627380D01*
X77291041Y-55341666D01*
X77613660Y-54627380D01*
X77488660Y-55627380D01*
X77824375Y-55341666D02*
X78157708Y-55341666D01*
X77721994Y-55627380D02*
X78080327Y-54627380D01*
X78188660Y-55627380D01*
X78421994Y-55627380D02*
X78546994Y-54627380D01*
X78821994Y-55627380D01*
X78946994Y-54627380D01*
X79167232Y-55532142D02*
X79194613Y-55579761D01*
X79155327Y-55627380D01*
X79127946Y-55579761D01*
X79167232Y-55532142D01*
X79155327Y-55627380D01*
X80021994Y-55627380D02*
X80146994Y-54627380D01*
X80413660Y-54627380D01*
X80474375Y-54675000D01*
X80501755Y-54722619D01*
X80523184Y-54817857D01*
X80505327Y-54960714D01*
X80460089Y-55055952D01*
X80420803Y-55103571D01*
X80348184Y-55151190D01*
X80081517Y-55151190D01*
X80846994Y-54627380D02*
X80745803Y-55436904D01*
X80767232Y-55532142D01*
X80794613Y-55579761D01*
X80855327Y-55627380D01*
X80988660Y-55627380D01*
X81061279Y-55579761D01*
X81100565Y-55532142D01*
X81145803Y-55436904D01*
X81246994Y-54627380D01*
X81788660Y-55627380D02*
X81455327Y-55627380D01*
X81580327Y-54627380D01*
X81994613Y-55579761D02*
X82088660Y-55627380D01*
X82255327Y-55627380D01*
X82327946Y-55579761D01*
X82367232Y-55532142D01*
X82412470Y-55436904D01*
X82424375Y-55341666D01*
X82402946Y-55246428D01*
X82375565Y-55198809D01*
X82314851Y-55151190D01*
X82187470Y-55103571D01*
X82126755Y-55055952D01*
X82099375Y-55008333D01*
X82077946Y-54913095D01*
X82089851Y-54817857D01*
X82135089Y-54722619D01*
X82174375Y-54675000D01*
X82246994Y-54627380D01*
X82413660Y-54627380D01*
X82507708Y-54675000D01*
X82754136Y-55103571D02*
X82987470Y-55103571D01*
X83021994Y-55627380D02*
X82688660Y-55627380D01*
X82813660Y-54627380D01*
X83146994Y-54627380D01*
X87527975Y-55122771D02*
X87194641Y-55122771D01*
X87129165Y-55646580D02*
X87254165Y-54646580D01*
X87730355Y-54646580D01*
X88557736Y-55646580D02*
X88283927Y-55170390D01*
X87986308Y-55646580D02*
X88111308Y-54646580D01*
X88492260Y-54646580D01*
X88581546Y-54694200D01*
X88623213Y-54741819D01*
X88658927Y-54837057D01*
X88641070Y-54979914D01*
X88581546Y-55075152D01*
X88527975Y-55122771D01*
X88426784Y-55170390D01*
X88045832Y-55170390D01*
X89051784Y-55122771D02*
X89385117Y-55122771D01*
X89462498Y-55646580D02*
X88986308Y-55646580D01*
X89111308Y-54646580D01*
X89587498Y-54646580D01*
X90545832Y-55741819D02*
X90456546Y-55694200D01*
X90373213Y-55598961D01*
X90248213Y-55456104D01*
X90158927Y-55408485D01*
X90063689Y-55408485D01*
X90081546Y-55646580D02*
X89992260Y-55598961D01*
X89908927Y-55503723D01*
X89885117Y-55313247D01*
X89926784Y-54979914D01*
X89998213Y-54789438D01*
X90105355Y-54694200D01*
X90206546Y-54646580D01*
X90397022Y-54646580D01*
X90486308Y-54694200D01*
X90569641Y-54789438D01*
X90593451Y-54979914D01*
X90551784Y-55313247D01*
X90480355Y-55503723D01*
X90373213Y-55598961D01*
X90272022Y-55646580D01*
X90081546Y-55646580D01*
X90950594Y-55551342D02*
X90992260Y-55598961D01*
X90938689Y-55646580D01*
X90897022Y-55598961D01*
X90950594Y-55551342D01*
X90938689Y-55646580D01*
D13*
X67869395Y-64258000D02*
X67831895Y-64291333D01*
X67727729Y-64324666D01*
X67661062Y-64324666D01*
X67565229Y-64291333D01*
X67506895Y-64224666D01*
X67481895Y-64158000D01*
X67465229Y-64024666D01*
X67477729Y-63924666D01*
X67527729Y-63791333D01*
X67569395Y-63724666D01*
X67644395Y-63658000D01*
X67748562Y-63624666D01*
X67815229Y-63624666D01*
X67911062Y-63658000D01*
X67940229Y-63691333D01*
X68261062Y-64324666D02*
X68198562Y-64291333D01*
X68173562Y-64224666D01*
X68248562Y-63624666D01*
X68627729Y-64324666D02*
X68565229Y-64291333D01*
X68536062Y-64258000D01*
X68511062Y-64191333D01*
X68536062Y-63991333D01*
X68577729Y-63924666D01*
X68615229Y-63891333D01*
X68686062Y-63858000D01*
X68786062Y-63858000D01*
X68848562Y-63891333D01*
X68877729Y-63924666D01*
X68902729Y-63991333D01*
X68877729Y-64191333D01*
X68836062Y-64258000D01*
X68798562Y-64291333D01*
X68727729Y-64324666D01*
X68627729Y-64324666D01*
X69465229Y-64291333D02*
X69394395Y-64324666D01*
X69261062Y-64324666D01*
X69198562Y-64291333D01*
X69169395Y-64258000D01*
X69144395Y-64191333D01*
X69169395Y-63991333D01*
X69211062Y-63924666D01*
X69248562Y-63891333D01*
X69319395Y-63858000D01*
X69452729Y-63858000D01*
X69515229Y-63891333D01*
X69761062Y-64324666D02*
X69848562Y-63624666D01*
X69861062Y-64058000D02*
X70027729Y-64324666D01*
X70086062Y-63858000D02*
X69786062Y-64124666D01*
X70861062Y-64324666D02*
X70948562Y-63624666D01*
X71119395Y-64124666D01*
X71415229Y-63624666D01*
X71327729Y-64324666D01*
X71761062Y-64324666D02*
X71698562Y-64291333D01*
X71669395Y-64258000D01*
X71644395Y-64191333D01*
X71669395Y-63991333D01*
X71711062Y-63924666D01*
X71748562Y-63891333D01*
X71819395Y-63858000D01*
X71919395Y-63858000D01*
X71981895Y-63891333D01*
X72011062Y-63924666D01*
X72036062Y-63991333D01*
X72011062Y-64191333D01*
X71969395Y-64258000D01*
X71931895Y-64291333D01*
X71861062Y-64324666D01*
X71761062Y-64324666D01*
X72594395Y-64324666D02*
X72681895Y-63624666D01*
X72598562Y-64291333D02*
X72527729Y-64324666D01*
X72394395Y-64324666D01*
X72331895Y-64291333D01*
X72302729Y-64258000D01*
X72277729Y-64191333D01*
X72302729Y-63991333D01*
X72344395Y-63924666D01*
X72381895Y-63891333D01*
X72452729Y-63858000D01*
X72586062Y-63858000D01*
X72648562Y-63891333D01*
X73286062Y-63858000D02*
X73227729Y-64324666D01*
X72986062Y-63858000D02*
X72940229Y-64224666D01*
X72965229Y-64291333D01*
X73027729Y-64324666D01*
X73127729Y-64324666D01*
X73198562Y-64291333D01*
X73236062Y-64258000D01*
X73661062Y-64324666D02*
X73598562Y-64291333D01*
X73573562Y-64224666D01*
X73648562Y-63624666D01*
X74198562Y-64291333D02*
X74127729Y-64324666D01*
X73994395Y-64324666D01*
X73931895Y-64291333D01*
X73906895Y-64224666D01*
X73940229Y-63958000D01*
X73981895Y-63891333D01*
X74052729Y-63858000D01*
X74186062Y-63858000D01*
X74248562Y-63891333D01*
X74273562Y-63958000D01*
X74265229Y-64024666D01*
X73923562Y-64091333D01*
X75461062Y-64324666D02*
X75269395Y-63991333D01*
X75061062Y-64324666D02*
X75148562Y-63624666D01*
X75415229Y-63624666D01*
X75477729Y-63658000D01*
X75506895Y-63691333D01*
X75531895Y-63758000D01*
X75519395Y-63858000D01*
X75477729Y-63924666D01*
X75440229Y-63958000D01*
X75369395Y-63991333D01*
X75102729Y-63991333D01*
X76031895Y-64291333D02*
X75961062Y-64324666D01*
X75827729Y-64324666D01*
X75765229Y-64291333D01*
X75740229Y-64224666D01*
X75773562Y-63958000D01*
X75815229Y-63891333D01*
X75886062Y-63858000D01*
X76019395Y-63858000D01*
X76081895Y-63891333D01*
X76106895Y-63958000D01*
X76098562Y-64024666D01*
X75756895Y-64091333D01*
X76352729Y-63858000D02*
X76461062Y-64324666D01*
X76686062Y-63858000D01*
X77419395Y-64124666D02*
X77752729Y-64124666D01*
X77327729Y-64324666D02*
X77648562Y-63624666D01*
X77794395Y-64324666D01*
D10*
%TO.C,U1*%
X94270580Y-50281904D02*
X95080104Y-50281904D01*
X95175342Y-50234285D01*
X95222961Y-50186666D01*
X95270580Y-50091428D01*
X95270580Y-49900952D01*
X95222961Y-49805714D01*
X95175342Y-49758095D01*
X95080104Y-49710476D01*
X94270580Y-49710476D01*
X95270580Y-48710476D02*
X95270580Y-49281904D01*
X95270580Y-48996190D02*
X94270580Y-48996190D01*
X94413438Y-49091428D01*
X94508676Y-49186666D01*
X94556295Y-49281904D01*
%TO.C,J3*%
X68257380Y-47323333D02*
X68971666Y-47323333D01*
X69114523Y-47370952D01*
X69209761Y-47466190D01*
X69257380Y-47609047D01*
X69257380Y-47704285D01*
X68257380Y-46942380D02*
X68257380Y-46323333D01*
X68638333Y-46656666D01*
X68638333Y-46513809D01*
X68685952Y-46418571D01*
X68733571Y-46370952D01*
X68828809Y-46323333D01*
X69066904Y-46323333D01*
X69162142Y-46370952D01*
X69209761Y-46418571D01*
X69257380Y-46513809D01*
X69257380Y-46799523D01*
X69209761Y-46894761D01*
X69162142Y-46942380D01*
%TO.C,U3*%
X105751380Y-50291904D02*
X106560904Y-50291904D01*
X106656142Y-50244285D01*
X106703761Y-50196666D01*
X106751380Y-50101428D01*
X106751380Y-49910952D01*
X106703761Y-49815714D01*
X106656142Y-49768095D01*
X106560904Y-49720476D01*
X105751380Y-49720476D01*
X105751380Y-49339523D02*
X105751380Y-48720476D01*
X106132333Y-49053809D01*
X106132333Y-48910952D01*
X106179952Y-48815714D01*
X106227571Y-48768095D01*
X106322809Y-48720476D01*
X106560904Y-48720476D01*
X106656142Y-48768095D01*
X106703761Y-48815714D01*
X106751380Y-48910952D01*
X106751380Y-49196666D01*
X106703761Y-49291904D01*
X106656142Y-49339523D01*
%TO.C,U5*%
X131328095Y-44112380D02*
X131328095Y-44921904D01*
X131375714Y-45017142D01*
X131423333Y-45064761D01*
X131518571Y-45112380D01*
X131709047Y-45112380D01*
X131804285Y-45064761D01*
X131851904Y-45017142D01*
X131899523Y-44921904D01*
X131899523Y-44112380D01*
X132851904Y-44112380D02*
X132375714Y-44112380D01*
X132328095Y-44588571D01*
X132375714Y-44540952D01*
X132470952Y-44493333D01*
X132709047Y-44493333D01*
X132804285Y-44540952D01*
X132851904Y-44588571D01*
X132899523Y-44683809D01*
X132899523Y-44921904D01*
X132851904Y-45017142D01*
X132804285Y-45064761D01*
X132709047Y-45112380D01*
X132470952Y-45112380D01*
X132375714Y-45064761D01*
X132328095Y-45017142D01*
%TO.C,RV1*%
X88203161Y-64511180D02*
X87869828Y-64034990D01*
X87631733Y-64511180D02*
X87631733Y-63511180D01*
X88012685Y-63511180D01*
X88107923Y-63558800D01*
X88155542Y-63606419D01*
X88203161Y-63701657D01*
X88203161Y-63844514D01*
X88155542Y-63939752D01*
X88107923Y-63987371D01*
X88012685Y-64034990D01*
X87631733Y-64034990D01*
X88488876Y-63511180D02*
X88822209Y-64511180D01*
X89155542Y-63511180D01*
X90012685Y-64511180D02*
X89441257Y-64511180D01*
X89726971Y-64511180D02*
X89726971Y-63511180D01*
X89631733Y-63654038D01*
X89536495Y-63749276D01*
X89441257Y-63796895D01*
%TO.C,C5*%
X80478333Y-52427142D02*
X80430714Y-52474761D01*
X80287857Y-52522380D01*
X80192619Y-52522380D01*
X80049761Y-52474761D01*
X79954523Y-52379523D01*
X79906904Y-52284285D01*
X79859285Y-52093809D01*
X79859285Y-51950952D01*
X79906904Y-51760476D01*
X79954523Y-51665238D01*
X80049761Y-51570000D01*
X80192619Y-51522380D01*
X80287857Y-51522380D01*
X80430714Y-51570000D01*
X80478333Y-51617619D01*
X81383095Y-51522380D02*
X80906904Y-51522380D01*
X80859285Y-51998571D01*
X80906904Y-51950952D01*
X81002142Y-51903333D01*
X81240238Y-51903333D01*
X81335476Y-51950952D01*
X81383095Y-51998571D01*
X81430714Y-52093809D01*
X81430714Y-52331904D01*
X81383095Y-52427142D01*
X81335476Y-52474761D01*
X81240238Y-52522380D01*
X81002142Y-52522380D01*
X80906904Y-52474761D01*
X80859285Y-52427142D01*
%TO.C,SW2*%
X74572761Y-55848333D02*
X74620380Y-55705476D01*
X74620380Y-55467380D01*
X74572761Y-55372142D01*
X74525142Y-55324523D01*
X74429904Y-55276904D01*
X74334666Y-55276904D01*
X74239428Y-55324523D01*
X74191809Y-55372142D01*
X74144190Y-55467380D01*
X74096571Y-55657857D01*
X74048952Y-55753095D01*
X74001333Y-55800714D01*
X73906095Y-55848333D01*
X73810857Y-55848333D01*
X73715619Y-55800714D01*
X73668000Y-55753095D01*
X73620380Y-55657857D01*
X73620380Y-55419761D01*
X73668000Y-55276904D01*
X73620380Y-54943571D02*
X74620380Y-54705476D01*
X73906095Y-54515000D01*
X74620380Y-54324523D01*
X73620380Y-54086428D01*
X73715619Y-53753095D02*
X73668000Y-53705476D01*
X73620380Y-53610238D01*
X73620380Y-53372142D01*
X73668000Y-53276904D01*
X73715619Y-53229285D01*
X73810857Y-53181666D01*
X73906095Y-53181666D01*
X74048952Y-53229285D01*
X74620380Y-53800714D01*
X74620380Y-53181666D01*
%TO.C,U6*%
X121168095Y-44112380D02*
X121168095Y-44921904D01*
X121215714Y-45017142D01*
X121263333Y-45064761D01*
X121358571Y-45112380D01*
X121549047Y-45112380D01*
X121644285Y-45064761D01*
X121691904Y-45017142D01*
X121739523Y-44921904D01*
X121739523Y-44112380D01*
X122644285Y-44112380D02*
X122453809Y-44112380D01*
X122358571Y-44160000D01*
X122310952Y-44207619D01*
X122215714Y-44350476D01*
X122168095Y-44540952D01*
X122168095Y-44921904D01*
X122215714Y-45017142D01*
X122263333Y-45064761D01*
X122358571Y-45112380D01*
X122549047Y-45112380D01*
X122644285Y-45064761D01*
X122691904Y-45017142D01*
X122739523Y-44921904D01*
X122739523Y-44683809D01*
X122691904Y-44588571D01*
X122644285Y-44540952D01*
X122549047Y-44493333D01*
X122358571Y-44493333D01*
X122263333Y-44540952D01*
X122215714Y-44588571D01*
X122168095Y-44683809D01*
%TO.C,SW1*%
X78676666Y-64412761D02*
X78819523Y-64460380D01*
X79057619Y-64460380D01*
X79152857Y-64412761D01*
X79200476Y-64365142D01*
X79248095Y-64269904D01*
X79248095Y-64174666D01*
X79200476Y-64079428D01*
X79152857Y-64031809D01*
X79057619Y-63984190D01*
X78867142Y-63936571D01*
X78771904Y-63888952D01*
X78724285Y-63841333D01*
X78676666Y-63746095D01*
X78676666Y-63650857D01*
X78724285Y-63555619D01*
X78771904Y-63508000D01*
X78867142Y-63460380D01*
X79105238Y-63460380D01*
X79248095Y-63508000D01*
X79581428Y-63460380D02*
X79819523Y-64460380D01*
X80010000Y-63746095D01*
X80200476Y-64460380D01*
X80438571Y-63460380D01*
X81343333Y-64460380D02*
X80771904Y-64460380D01*
X81057619Y-64460380D02*
X81057619Y-63460380D01*
X80962380Y-63603238D01*
X80867142Y-63698476D01*
X80771904Y-63746095D01*
%TO.C,U2*%
X93642380Y-60441904D02*
X94451904Y-60441904D01*
X94547142Y-60394285D01*
X94594761Y-60346666D01*
X94642380Y-60251428D01*
X94642380Y-60060952D01*
X94594761Y-59965714D01*
X94547142Y-59918095D01*
X94451904Y-59870476D01*
X93642380Y-59870476D01*
X93737619Y-59441904D02*
X93690000Y-59394285D01*
X93642380Y-59299047D01*
X93642380Y-59060952D01*
X93690000Y-58965714D01*
X93737619Y-58918095D01*
X93832857Y-58870476D01*
X93928095Y-58870476D01*
X94070952Y-58918095D01*
X94642380Y-59489523D01*
X94642380Y-58870476D01*
%TO.C,U4*%
X111008095Y-44117380D02*
X111008095Y-44926904D01*
X111055714Y-45022142D01*
X111103333Y-45069761D01*
X111198571Y-45117380D01*
X111389047Y-45117380D01*
X111484285Y-45069761D01*
X111531904Y-45022142D01*
X111579523Y-44926904D01*
X111579523Y-44117380D01*
X112484285Y-44450714D02*
X112484285Y-45117380D01*
X112246190Y-44069761D02*
X112008095Y-44784047D01*
X112627142Y-44784047D01*
D14*
%TO.C,U1*%
X83760000Y-46870000D02*
X83760000Y-48520000D01*
X83760000Y-50520000D02*
X83760000Y-52170000D01*
X94040000Y-46870000D02*
X83760000Y-46870000D01*
X94040000Y-52170000D02*
X94040000Y-46870000D01*
X83760000Y-52170000D02*
X94040000Y-52170000D01*
X83760000Y-50520000D02*
G75*
G03*
X83760000Y-48520000I0J1000000D01*
G01*
%TO.C,J3*%
X77545000Y-48320000D02*
X77545000Y-45660000D01*
X72405000Y-48320000D02*
X77545000Y-48320000D01*
X71135000Y-48320000D02*
X69805000Y-48320000D01*
X72405000Y-45660000D02*
X77545000Y-45660000D01*
X69805000Y-48320000D02*
X69805000Y-46990000D01*
X72405000Y-48320000D02*
X72405000Y-45660000D01*
%TO.C,U3*%
X105480000Y-52170000D02*
X105480000Y-46870000D01*
X95200000Y-50520000D02*
X95200000Y-52170000D01*
X105480000Y-46870000D02*
X95200000Y-46870000D01*
X95200000Y-52170000D02*
X105480000Y-52170000D01*
X95200000Y-46870000D02*
X95200000Y-48520000D01*
X95200000Y-50520000D02*
G75*
G03*
X95200000Y-48520000I0J1000000D01*
G01*
%TO.C,U5*%
X129440000Y-63560000D02*
X134740000Y-63560000D01*
X131090000Y-45660000D02*
X129440000Y-45660000D01*
X134740000Y-45660000D02*
X133090000Y-45660000D01*
X129440000Y-45660000D02*
X129440000Y-63560000D01*
X134740000Y-63560000D02*
X134740000Y-45660000D01*
X131090000Y-45660000D02*
G75*
G03*
X133090000Y-45660000I1000000J0D01*
G01*
%TO.C,RV1*%
X90690000Y-63150000D02*
X87110000Y-63150000D01*
X87110000Y-63350000D02*
X85690000Y-63350000D01*
X85690000Y-63150000D02*
X85590000Y-63150000D01*
X92110000Y-63150000D02*
X92210000Y-63150000D01*
X89410000Y-56130000D02*
X90900000Y-56130000D01*
X86900000Y-56130000D02*
X88390000Y-56130000D01*
X92210000Y-63150000D02*
X92210000Y-62900000D01*
X85590000Y-61420000D02*
X85590000Y-57440000D01*
X85690000Y-63350000D02*
X85690000Y-63150000D01*
X92110000Y-63350000D02*
X92110000Y-63150000D01*
X90690000Y-63150000D02*
X90690000Y-63350000D01*
X85590000Y-63150000D02*
X85590000Y-62460000D01*
X92110000Y-63350000D02*
X90690000Y-63350000D01*
X92210000Y-57440000D02*
X92210000Y-60980000D01*
X87110000Y-63150000D02*
X87110000Y-63350000D01*
X86900000Y-56130000D02*
G75*
G03*
X85590000Y-57440000I0J-1310000D01*
G01*
X92210000Y-57440000D02*
G75*
G03*
X90900000Y-56130000I-1310000J0D01*
G01*
%TO.C,C5*%
X81840563Y-50189800D02*
X81705000Y-50189800D01*
X81840563Y-50189800D02*
X82905000Y-49125363D01*
X79449437Y-50189800D02*
X79585000Y-50189800D01*
X79085000Y-50929800D02*
X79085000Y-50429800D01*
X82905000Y-49125363D02*
X82905000Y-45669800D01*
X78385000Y-49125363D02*
X78385000Y-45669800D01*
X78835000Y-50679800D02*
X79335000Y-50679800D01*
X78385000Y-45669800D02*
X79585000Y-45669800D01*
X82905000Y-45669800D02*
X81705000Y-45669800D01*
X79449437Y-50189800D02*
X78385000Y-49125363D01*
%TO.C,SW2*%
X68860000Y-50105000D02*
X69170000Y-50105000D01*
X73380000Y-58925000D02*
X73070000Y-58925000D01*
X68160000Y-57015000D02*
X68660000Y-56515000D01*
X73380000Y-50105000D02*
X73070000Y-50105000D01*
X73380000Y-50105000D02*
X73380000Y-58925000D01*
X68660000Y-56515000D02*
X68160000Y-56015000D01*
X68160000Y-56015000D02*
X68160000Y-57015000D01*
X68860000Y-58925000D02*
X68860000Y-50105000D01*
X69170000Y-58925000D02*
X68860000Y-58925000D01*
%TO.C,U6*%
X124580000Y-45660000D02*
X122930000Y-45660000D01*
X119280000Y-45660000D02*
X119280000Y-63560000D01*
X124580000Y-63560000D02*
X124580000Y-45660000D01*
X120930000Y-45660000D02*
X119280000Y-45660000D01*
X119280000Y-63560000D02*
X124580000Y-63560000D01*
X120930000Y-45660000D02*
G75*
G03*
X122930000Y-45660000I1000000J0D01*
G01*
%TO.C,SW1*%
X83510000Y-60440000D02*
X83510000Y-58940000D01*
X82260000Y-56440000D02*
X77760000Y-56440000D01*
X76510000Y-58940000D02*
X76510000Y-60440000D01*
X77760000Y-62940000D02*
X82260000Y-62940000D01*
%TO.C,U2*%
X95190000Y-60680000D02*
X95190000Y-62330000D01*
X95190000Y-57030000D02*
X95190000Y-58680000D01*
X95190000Y-62330000D02*
X105470000Y-62330000D01*
X105470000Y-62330000D02*
X105470000Y-57030000D01*
X105470000Y-57030000D02*
X95190000Y-57030000D01*
X95190000Y-60680000D02*
G75*
G03*
X95190000Y-58680000I0J1000000D01*
G01*
%TO.C,U4*%
X109120000Y-63565000D02*
X114420000Y-63565000D01*
X114420000Y-45665000D02*
X112770000Y-45665000D01*
X114420000Y-63565000D02*
X114420000Y-45665000D01*
X109120000Y-45665000D02*
X109120000Y-63565000D01*
X110770000Y-45665000D02*
X109120000Y-45665000D01*
X110770000Y-45665000D02*
G75*
G03*
X112770000Y-45665000I1000000J0D01*
G01*
%TD*%
M02*
